<svg version="1.2" xmlns="http://www.w3.org/2000/svg" viewBox="0 0 512 512" width="512" height="512"><style>.a{fill:#fff}</style><path class="a" d="m256 8c-137 0-248 111-248 248 0 137 111 248 248 248 137 0 248-111 248-248 0-137-111-248-248-248zm121.6 313.1c4.7 4.7 4.7 12.3 0 17l-39.6 39.5c-4.7 4.7-12.3 4.7-17 0l-65-65.6-65.1 65.6c-4.7 4.7-12.3 4.7-17 0l-39.5-39.6c-4.7-4.7-4.7-12.3 0-17l65.6-65-65.6-65.1c-4.7-4.7-4.7-12.3 0-17l39.6-39.6c4.7-4.7 12.3-4.7 17 0l65 65.7 65.1-65.6c4.7-4.7 12.3-4.7 17 0l39.6 39.6c4.7 4.7 4.7 12.3 0 17l-65.7 65z"/></svg>